<?xml version="1.0" encoding="utf-8"?>
<!-- Generator: Adobe Illustrator 26.0.3, SVG Export Plug-In . SVG Version: 6.00 Build 0)  -->
<svg version="1.1" id="Layer_1" xmlns="http://www.w3.org/2000/svg" xmlns:xlink="http://www.w3.org/1999/xlink" x="0px" y="0px"
	 viewBox="0 0 50 50" style="enable-background:new 0 0 50 50;" xml:space="preserve">
<style type="text/css">
	.st0{fill:none;stroke:#F58020;stroke-width:7.307087e-02;stroke-miterlimit:2;}
	.st1{fill-rule:evenodd;clip-rule:evenodd;fill:#F58020;}
</style>
<g>
	<g>
		<g>
			<line class="st0" x1="12.7" y1="33.6" x2="12.7" y2="28.9"/>
			<polyline class="st1" points="12.9,33.5 12.7,33.7 12.5,33.5 12.5,28.7 12.9,29 12.9,33.5 12.9,33.5 			"/>
			<line class="st0" x1="13.9" y1="32.9" x2="13.9" y2="29.6"/>
			<polygon class="st1" points="13.7,29.5 14.1,29.5 14.1,33 13.7,33 			"/>
			<line class="st0" x1="16.8" y1="36" x2="12.7" y2="33.7"/>
			<polyline class="st1" points="16.9,35.8 16.9,36.3 12.7,34 12.7,33.7 12.9,33.5 16.9,35.8 16.9,35.8 			"/>
			<line class="st0" x1="21" y1="33.7" x2="16.9" y2="36"/>
			<polyline class="st1" points="20.8,33.5 21,33.7 21,34 16.9,36.3 16.9,35.8 20.8,33.5 20.8,33.5 			"/>
			<line class="st0" x1="19.8" y1="33" x2="16.9" y2="34.7"/>
			<polyline class="st1" points="19.7,32.7 19.9,33.2 17,34.9 16.7,34.5 19.7,32.7 19.7,32.7 			"/>
			<line class="st0" x1="21" y1="28.9" x2="21" y2="33.6"/>
			<polyline class="st1" points="20.8,29 21,28.9 21.2,29 21.2,33.5 21,33.7 20.8,33.5 20.8,29 20.8,29 			"/>
			<line class="st0" x1="16.9" y1="26.5" x2="21" y2="28.8"/>
			<polyline class="st1" points="16.9,26.7 16.9,26.2 21,28.6 21,28.9 20.8,29 16.9,26.7 16.9,26.7 			"/>
			<line class="st0" x1="16.9" y1="27.9" x2="19.8" y2="29.5"/>
			<polyline class="st1" points="16.7,28.1 17,27.6 19.9,29.4 19.7,29.8 16.7,28.1 16.7,28.1 			"/>
			<line class="st0" x1="12.7" y1="28.8" x2="16.8" y2="26.5"/>
			<polyline class="st1" points="12.9,29 12.5,28.7 16.9,26.2 16.9,26.7 12.9,29 12.9,29 			"/>
			<line class="st0" x1="25.1" y1="36" x2="21.1" y2="33.7"/>
			<polyline class="st1" points="25.2,35.8 25.2,36.1 24.9,36.1 21,34 21,33.7 21.2,33.5 25.2,35.8 25.2,35.8 			"/>
			<line class="st0" x1="29.3" y1="33.7" x2="25.2" y2="36"/>
			<polyline class="st1" points="29.1,33.5 29.3,33.7 29.3,34 25.5,36.1 25.2,36.1 25.2,35.8 29.1,33.5 29.1,33.5 			"/>
			<line class="st0" x1="29.3" y1="28.9" x2="29.3" y2="33.6"/>
			<polyline class="st1" points="29.1,29 29.3,28.9 29.5,29 29.5,33.5 29.3,33.7 29.1,33.5 29.1,29 29.1,29 			"/>
			<line class="st0" x1="25.2" y1="26.5" x2="29.3" y2="28.8"/>
			<polyline class="st1" points="25.2,26.7 25.2,26.4 25.4,26.3 29.3,28.6 29.3,28.9 29.1,29 25.2,26.7 25.2,26.7 			"/>
			<line class="st0" x1="25.2" y1="27.9" x2="28.1" y2="29.5"/>
			<polyline class="st1" points="25,28.1 25.3,27.6 28.2,29.4 28,29.8 25,28.1 25,28.1 			"/>
			<line class="st0" x1="21.1" y1="28.8" x2="25.1" y2="26.5"/>
			<polyline class="st1" points="21.2,29 21,28.9 21,28.6 24.9,26.3 25.2,26.4 25.2,26.7 21.2,29 21.2,29 			"/>
			<line class="st0" x1="33.4" y1="36" x2="29.4" y2="33.7"/>
			<polyline class="st1" points="33.5,35.8 33.5,36.3 29.3,34 29.3,33.7 29.5,33.5 33.5,35.8 33.5,35.8 			"/>
			<line class="st0" x1="33.4" y1="34.7" x2="30.6" y2="33"/>
			<polyline class="st1" points="33.6,34.5 33.4,34.9 30.4,33.2 30.7,32.7 33.6,34.5 33.6,34.5 			"/>
			<line class="st0" x1="37.6" y1="33.7" x2="33.5" y2="36"/>
			<polyline class="st1" points="37.4,33.5 37.6,33.7 37.6,34 33.5,36.3 33.5,35.8 37.4,33.5 37.4,33.5 			"/>
			<line class="st0" x1="37.6" y1="28.9" x2="37.6" y2="33.6"/>
			<polyline class="st1" points="37.4,29 37.9,28.7 37.9,33.5 37.6,33.7 37.4,33.5 37.4,29 37.4,29 			"/>
			<line class="st0" x1="33.5" y1="26.5" x2="37.6" y2="28.8"/>
			<polyline class="st1" points="33.5,26.7 33.5,26.2 37.9,28.7 37.4,29 33.5,26.7 33.5,26.7 			"/>
			<line class="st0" x1="33.5" y1="27.9" x2="36.4" y2="29.5"/>
			<polyline class="st1" points="33.4,28.1 33.6,27.6 36.6,29.4 36.3,29.8 33.4,28.1 33.4,28.1 			"/>
			<line class="st0" x1="29.4" y1="28.8" x2="33.4" y2="26.5"/>
			<polyline class="st1" points="29.5,29 29.3,28.9 29.3,28.6 33.5,26.2 33.5,26.7 29.5,29 29.5,29 			"/>
			<line class="st0" x1="22.8" y1="40.2" x2="25.1" y2="36.1"/>
			<polyline class="st1" points="23,40.4 22.5,40.1 24.9,36.1 25.2,36.1 25.2,36.6 23,40.4 23,40.4 			"/>
			<line class="st0" x1="25.2" y1="36.1" x2="27.5" y2="40.2"/>
			<polyline class="st1" points="25.2,36.6 25.2,36.1 25.5,36.1 27.8,40.1 27.4,40.4 25.2,36.6 25.2,36.6 			"/>
			<line class="st0" x1="8.6" y1="36" x2="12.7" y2="33.7"/>
			<polyline class="st1" points="8.8,36.2 8.5,36.1 8.5,35.8 12.5,33.5 12.7,33.7 12.7,34 8.8,36.2 8.8,36.2 			"/>
			<line class="st0" x1="41.8" y1="36" x2="37.7" y2="33.7"/>
			<polyline class="st1" points="41.8,35.8 41.8,36.1 41.6,36.2 37.6,34 37.6,33.7 37.9,33.5 41.8,35.8 41.8,35.8 			"/>
			<line class="st0" x1="41.8" y1="34.7" x2="38.9" y2="33"/>
			<polyline class="st1" points="41.9,34.5 41.7,34.9 38.7,33.2 39,32.7 41.9,34.5 41.9,34.5 			"/>
			<line class="st0" x1="41.8" y1="40.8" x2="41.8" y2="36.1"/>
			<polyline class="st1" points="42,40.9 41.6,40.9 41.6,36.2 41.8,36.1 42,36.2 42,40.9 42,40.9 			"/>
			<line class="st0" x1="8.5" y1="40.8" x2="8.5" y2="36.1"/>
			<polyline class="st1" points="8.8,40.9 8.3,40.9 8.3,36.2 8.5,36.1 8.8,36.2 8.8,40.9 8.8,40.9 			"/>
			<line class="st0" x1="4.4" y1="33.7" x2="8.5" y2="36"/>
			<polyline class="st1" points="4.3,33.9 4.5,33.4 8.5,35.8 8.5,36.1 8.3,36.2 4.3,33.9 4.3,33.9 			"/>
			<line class="st0" x1="25.2" y1="21.7" x2="25.2" y2="26.4"/>
			<polyline class="st1" points="24.9,21.8 25.2,21.7 25.4,21.8 25.4,26.3 25.2,26.4 24.9,26.3 24.9,21.8 24.9,21.8 			"/>
			<line class="st0" x1="29.3" y1="19.3" x2="25.2" y2="21.6"/>
			<polyline class="st1" points="29.1,19.1 29.3,19.2 29.3,19.5 25.4,21.8 25.2,21.7 25.2,21.4 29.1,19.1 29.1,19.1 			"/>
			<line class="st0" x1="28.1" y1="18.6" x2="25.2" y2="20.2"/>
			<polyline class="st1" points="28,18.4 28.2,18.8 25.3,20.5 25,20.1 28,18.4 28,18.4 			"/>
			<line class="st0" x1="29.3" y1="14.5" x2="29.3" y2="19.2"/>
			<polyline class="st1" points="29.1,14.6 29.5,14.3 29.5,19.1 29.3,19.2 29.1,19.1 29.1,14.6 29.1,14.6 			"/>
			<line class="st0" x1="25.2" y1="12.1" x2="29.3" y2="14.4"/>
			<polyline class="st1" points="25.2,12.3 25.2,12.1 25.4,11.9 29.5,14.3 29.1,14.6 25.2,12.3 25.2,12.3 			"/>
			<line class="st0" x1="25.2" y1="13.5" x2="28.1" y2="15.1"/>
			<polyline class="st1" points="25,13.6 25.3,13.2 28.2,14.9 28,15.3 25,13.6 25,13.6 			"/>
			<line class="st0" x1="21.1" y1="14.4" x2="25.1" y2="12.1"/>
			<polyline class="st1" points="21.2,14.6 20.8,14.3 24.9,11.9 25.2,12.1 25.2,12.3 21.2,14.6 21.2,14.6 			"/>
			<line class="st0" x1="21" y1="19.2" x2="21" y2="14.5"/>
			<polyline class="st1" points="21.2,19.1 20.8,19.4 20.8,14.3 21.2,14.6 21.2,19.1 21.2,19.1 			"/>
			<line class="st0" x1="22.2" y1="18.5" x2="22.2" y2="15.2"/>
			<polygon class="st1" points="22,15.2 22.4,15.2 22.4,18.5 22,18.5 			"/>
			<line class="st0" x1="25.1" y1="21.6" x2="21.1" y2="19.3"/>
			<polyline class="st1" points="25.2,21.4 25.2,21.7 24.9,21.8 20.8,19.4 21.2,19.1 25.2,21.4 25.2,21.4 			"/>
			<line class="st0" x1="33.4" y1="21.6" x2="29.4" y2="19.3"/>
			<polyline class="st1" points="33.5,21.4 33.5,21.9 29.3,19.5 29.3,19.2 29.5,19.1 33.5,21.4 33.5,21.4 			"/>
			<line class="st0" x1="37.6" y1="19.3" x2="33.5" y2="21.6"/>
			<polyline class="st1" points="37.5,19.1 37.8,19.5 33.5,21.9 33.5,21.4 37.5,19.1 37.5,19.1 			"/>
			<line class="st0" x1="45.9" y1="33.7" x2="41.8" y2="36"/>
			<polyline class="st1" points="45.8,33.4 46.1,33.9 42,36.2 41.8,36.1 41.8,35.8 45.8,33.4 45.8,33.4 			"/>
			<line class="st0" x1="25.2" y1="7.3" x2="25.2" y2="12"/>
			<polyline class="st1" points="24.9,7.1 25.4,7.4 25.4,11.9 25.2,12.1 24.9,11.9 24.9,7.1 24.9,7.1 			"/>
			<line class="st0" x1="29.3" y1="4.9" x2="25.2" y2="7.2"/>
			<polyline class="st1" points="29.2,4.6 29.5,5 25.4,7.4 24.9,7.1 29.2,4.6 29.2,4.6 			"/>
		</g>
	</g>
</g>
</svg>
